<svg xmlns="http://www.w3.org/2000/svg" viewBox="0 0 160 160" role="img" aria-label="Cyber Guard Pro">
  <defs>
    <linearGradient id="g" x1="0" x2="1" y1="0" y2="1">
      <stop offset="0" stop-color="#25A1FF"/>
      <stop offset="1" stop-color="#7BD88F"/>
    </linearGradient>
  </defs>
  <!-- shield -->
  <path d="M80 10c18 10 36 10 54 0v58c0 28-20 54-54 72C46 122 26 96 26 68V10c18 10 36 10 54 0z"
        fill="none" stroke="url(#g)" stroke-width="8"/>
  <!-- inner shield -->
  <path d="M80 26c14 8 28 8 42 0v42c0 22-16 42-42 56-26-14-42-34-42-56V26c14 8 28 8 42 0z"
        fill="none" stroke="url(#g)" stroke-width="4" opacity=".9"/>
  <!-- tick -->
  <path d="M60 78l14 14 28-32" fill="none" stroke="#7BD88F" stroke-width="8" stroke-linecap="round" stroke-linejoin="round"/>
</svg>
